<svg width="16" height="16" viewBox="0 0 16 16" fill="none" xmlns="http://www.w3.org/2000/svg">
<path d="M7.99992 1.33398C11.6818 1.33398 14.6666 4.31875 14.6666 8.00065C14.6666 9.80705 13.9469 11.4471 12.7805 12.6471C11.57 13.8924 9.87485 14.6673 7.99992 14.6673C6.12496 14.6673 4.42984 13.8924 3.21932 12.6471C2.05291 11.4471 1.33325 9.80705 1.33325 8.00065C1.33325 4.31875 4.31802 1.33398 7.99992 1.33398ZM7.99992 10.6673C6.66805 10.6673 5.46741 11.2257 4.61645 12.1217C5.53753 12.879 6.71485 13.334 7.99992 13.334C9.28485 13.334 10.4617 12.8789 11.3827 12.1217C10.5318 11.2258 9.33158 10.6673 7.99992 10.6673ZM7.99992 2.66732C5.0544 2.66732 2.66659 5.05513 2.66659 8.00065C2.66659 9.18072 3.04967 10.2703 3.69849 11.1537C4.78805 10.0329 6.3119 9.33398 7.99992 9.33398C9.68779 9.33398 11.2112 10.033 12.3007 11.1537C12.9497 10.2702 13.3333 9.18085 13.3333 8.00065C13.3333 5.05513 10.9455 2.66732 7.99992 2.66732ZM7.68612 3.54688C7.80378 3.26284 8.19612 3.26284 8.31372 3.54688L8.48232 3.95442C8.77032 4.6496 9.30758 5.2048 9.98298 5.50521L10.4615 5.71745C10.7352 5.83929 10.7351 6.23816 10.4615 6.36002L9.95498 6.58528C9.29645 6.87818 8.76885 7.41352 8.47585 8.08592L8.31112 8.46292C8.19085 8.73892 7.80905 8.73892 7.68872 8.46292L7.52465 8.08592C7.23165 7.41352 6.70338 6.87818 6.04484 6.58528L5.53833 6.36002C5.26471 6.23817 5.2647 5.83928 5.53833 5.71745L6.01684 5.50521C6.69225 5.2048 7.22958 4.64962 7.51752 3.95442L7.68612 3.54688Z" fill="url(#paint0_linear_1512_2932)"/>
<defs>
<linearGradient id="paint0_linear_1512_2932" x1="7.99992" y1="1.33398" x2="7.99992" y2="14.6673" gradientUnits="userSpaceOnUse">
<stop stop-color="#0AADA3"/>
<stop offset="1" stop-color="#04BC90"/>
</linearGradient>
</defs>
</svg>
